<svg width="24" height="25" viewBox="0 0 24 25" fill="none" xmlns="http://www.w3.org/2000/svg">
<path d="M16.0001 22.1V19.23C16.0376 18.7532 15.9732 18.2738 15.8111 17.8238C15.649 17.3738 15.393 16.9634 15.0601 16.62C18.2001 16.27 21.5001 15.08 21.5001 9.62004C21.4998 8.22387 20.9628 6.88124 20.0001 5.87004C20.4559 4.64855 20.4237 3.29839 19.9101 2.10004C19.9101 2.10004 18.7301 1.75004 16.0001 3.58004C13.7081 2.95886 11.2921 2.95886 9.00008 3.58004C6.27008 1.75004 5.09008 2.10004 5.09008 2.10004C4.57645 3.29839 4.54422 4.64855 5.00008 5.87004C4.0302 6.88874 3.4926 8.24351 3.50008 9.65004C3.50008 15.07 6.80007 16.26 9.94007 16.65C9.61107 16.99 9.35734 17.3954 9.19538 17.8399C9.03343 18.2844 8.96688 18.7581 9.00008 19.23V22.1" stroke="black" stroke-width="1.5" stroke-linecap="round" stroke-linejoin="round"/>
<path d="M9 20.0996C6 21.0728 3.5 20.0996 2 17.0996" stroke="black" stroke-width="1.5" stroke-linecap="round" stroke-linejoin="round"/>
</svg>
