<svg width="24" height="17" viewBox="0 0 24 17" fill="none" xmlns="http://www.w3.org/2000/svg">
<g clip-path="url(#clip0_2706_414)">
<mask id="mask0_2706_414" style="mask-type:luminance" maskUnits="userSpaceOnUse" x="0" y="0" width="24" height="17">
<path d="M23.9305 0.647461H0.21875V16.6475H23.9305V0.647461Z" fill="white"/>
</mask>
<g mask="url(#mask0_2706_414)">
<mask id="mask1_2706_414" style="mask-type:luminance" maskUnits="userSpaceOnUse" x="0" y="0" width="24" height="17">
<path d="M0.21875 0.647461H23.9305V16.3566H0.21875V0.647461Z" fill="white"/>
</mask>
<g mask="url(#mask1_2706_414)">
<path fill-rule="evenodd" clip-rule="evenodd" d="M12.0747 0.647461C8.91309 0.647461 6.93709 2.39292 6.1467 5.88384C7.3323 4.13836 8.71549 3.48384 10.2963 3.92019C11.1982 4.16891 11.8428 4.89184 12.5564 5.69134C13.7187 6.99414 15.0641 8.50201 18.0026 8.50201C21.1642 8.50201 23.1401 6.75656 23.9305 3.26564C22.745 5.01109 21.3618 5.66564 19.781 5.22929C18.8791 4.98056 18.2345 4.25764 17.5209 3.45814C16.3586 2.15534 15.0132 0.647461 12.0747 0.647461ZM6.1467 8.50201C2.98513 8.50201 1.00914 10.2475 0.21875 13.7384C1.40434 11.9929 2.78754 11.3384 4.36833 11.7747C5.27025 12.0239 5.91485 12.7464 6.6284 13.5459C7.79072 14.8487 9.13615 16.3566 12.0747 16.3566C15.2362 16.3566 17.2122 14.6111 18.0026 11.1202C16.817 12.8656 15.4338 13.5202 13.8531 13.0838C12.9511 12.8351 12.3065 12.1122 11.593 11.3127C10.4306 10.0099 9.08521 8.50201 6.1467 8.50201Z" fill="#38BDF8"/>
</g>
</g>
</g>
<defs>
<clipPath id="clip0_2706_414">
<rect width="24" height="16" fill="white" transform="translate(0 0.647461)"/>
</clipPath>
</defs>
</svg>
