<svg width="16" height="17" viewBox="0 0 16 17" fill="none" xmlns="http://www.w3.org/2000/svg">
<g clip-path="url(#clip0_2706_387)">
<mask id="mask0_2706_387" style="mask-type:luminance" maskUnits="userSpaceOnUse" x="0" y="0" width="16" height="17">
<path d="M15.9687 0.647461H0.214844V16.6475H15.9687V0.647461Z" fill="white"/>
</mask>
<g mask="url(#mask0_2706_387)">
<path d="M15.2302 0.647461H0.953305C0.545465 0.647461 0.214844 0.983248 0.214844 1.39746V15.8975C0.214844 16.3117 0.545465 16.6475 0.953305 16.6475H15.2302C15.6381 16.6475 15.9687 16.3117 15.9687 15.8975V1.39746C15.9687 0.983248 15.6381 0.647461 15.2302 0.647461Z" fill="#3178C6"/>
<path fill-rule="evenodd" clip-rule="evenodd" d="M9.35427 13.081V14.8342C9.63395 14.9802 9.9647 15.0898 10.3466 15.1628C10.7284 15.236 11.1309 15.2725 11.554 15.2725C11.9664 15.2725 12.3581 15.2323 12.7291 15.152C13.1003 15.0716 13.4256 14.9392 13.7054 14.7547C13.985 14.5702 14.2064 14.3292 14.3696 14.0315C14.5327 13.7338 14.6143 13.3658 14.6143 12.9275C14.6143 12.6098 14.5677 12.3313 14.4745 12.092C14.3812 11.8528 14.2468 11.6401 14.071 11.4538C13.8954 11.2675 13.6847 11.1004 13.4392 10.9525C13.1935 10.8045 12.9166 10.6648 12.6081 10.5333C12.3823 10.4384 12.1797 10.3461 12.0004 10.2567C11.8211 10.1672 11.6688 10.0759 11.5433 9.98271C11.4178 9.88956 11.321 9.79096 11.2528 9.68686C11.1847 9.58279 11.1506 9.46496 11.1506 9.33349C11.1506 9.21294 11.1811 9.10429 11.2421 9.00751C11.303 8.91071 11.3891 8.82761 11.5002 8.75821C11.6114 8.68884 11.7476 8.63496 11.909 8.59661C12.0704 8.55824 12.2496 8.53906 12.4468 8.53906C12.5903 8.53906 12.7417 8.55004 12.9013 8.57194C13.0608 8.59386 13.2213 8.62764 13.3827 8.67331C13.544 8.71896 13.7008 8.77649 13.8533 8.84589C14.0057 8.91529 14.1464 8.99564 14.2755 9.08694V7.44881C14.0137 7.34654 13.7278 7.27074 13.4176 7.22144C13.1075 7.17211 12.7517 7.14746 12.35 7.14746C11.9413 7.14746 11.554 7.19219 11.1883 7.28169C10.8226 7.37116 10.5008 7.51089 10.2229 7.70081C9.94499 7.89074 9.72537 8.13271 9.56404 8.42674C9.40268 8.72076 9.322 9.07234 9.322 9.48141C9.322 10.0037 9.46991 10.4493 9.76571 10.8182C10.0615 11.1871 10.5106 11.4994 11.113 11.7551C11.3496 11.8537 11.5702 11.9505 11.7745 12.0455C11.9789 12.1404 12.1555 12.2391 12.3043 12.3413C12.4531 12.4436 12.5705 12.555 12.6565 12.6755C12.7427 12.7961 12.7856 12.933 12.7856 13.0864C12.7856 13.1997 12.7588 13.3047 12.705 13.4015C12.6512 13.4982 12.5696 13.5822 12.4603 13.6535C12.3509 13.7247 12.2147 13.7805 12.0515 13.8206C11.8884 13.8607 11.6975 13.8808 11.4787 13.8808C11.1058 13.8808 10.7365 13.8142 10.3708 13.6808C10.005 13.5476 9.66622 13.3476 9.35427 13.081ZM6.45462 8.71676H8.70661V7.27246H2.42969V8.71676H4.67067V15.1475H6.45462V8.71676Z" fill="white"/>
</g>
</g>
<defs>
<clipPath id="clip0_2706_387">
<rect width="16" height="16" fill="white" transform="translate(0 0.647461)"/>
</clipPath>
</defs>
</svg>
