<svg width="16" height="17" viewBox="0 0 16 17" fill="none" xmlns="http://www.w3.org/2000/svg">
<g clip-path="url(#clip0_2706_411)">
<path d="M7.47606 0.651767C7.44164 0.654894 7.33216 0.665841 7.23363 0.67366C4.96109 0.878517 2.83245 2.10453 1.48426 3.98891C0.733529 5.03664 0.253373 6.22513 0.0719453 7.48398C0.00782015 7.92341 0 8.0532 0 8.64901C0 9.24481 0.00782015 9.37461 0.0719453 9.81404C0.506745 12.8181 2.64477 15.3421 5.54448 16.2772C6.06374 16.4445 6.61114 16.5587 7.23363 16.6275C7.47604 16.6541 8.52396 16.6541 8.76637 16.6275C9.84086 16.5087 10.7511 16.2428 11.6489 15.7846C11.7865 15.7142 11.8131 15.6954 11.7943 15.6799C11.7818 15.6704 11.1953 14.8838 10.4915 13.9331L9.21212 12.2051L7.60899 9.83281C6.72688 8.52859 6.00118 7.46209 5.99492 7.46209C5.98865 7.46052 5.9824 8.51452 5.97927 9.80152C5.97459 12.055 5.97302 12.1457 5.94487 12.1988C5.9042 12.2754 5.87292 12.3067 5.80723 12.3411C5.75718 12.3662 5.7134 12.3708 5.47722 12.3708H5.20665L5.13471 12.3255C5.08778 12.2958 5.05337 12.2567 5.02991 12.2113L4.99706 12.141L5.00019 9.00555L5.00489 5.86858L5.05337 5.80759C5.0784 5.77475 5.13158 5.73254 5.16911 5.7122C5.23324 5.68093 5.25825 5.6778 5.52884 5.6778C5.8479 5.6778 5.90108 5.69031 5.98397 5.781C6.00743 5.80604 6.87546 7.11336 7.91398 8.68811C8.95249 10.2628 10.3726 12.4131 11.0702 13.4686L12.337 15.3874L12.4012 15.3452C12.9689 14.9761 13.5695 14.4507 14.045 13.9034C15.0569 12.7415 15.7091 11.3247 15.928 9.81404C15.9921 9.37461 16 9.24481 16 8.64901C16 8.0532 15.9921 7.92341 15.928 7.48398C15.4932 4.47993 13.3552 1.95597 10.4555 1.02082C9.94409 0.85506 9.39981 0.740902 8.78983 0.672095C8.63968 0.656457 7.60586 0.639256 7.47606 0.651767ZM10.7511 5.49014C10.8262 5.52768 10.8872 5.59961 10.9091 5.67468C10.9216 5.71533 10.9247 6.5848 10.9216 8.54424L10.9169 11.3559L10.4211 10.5959L9.92375 9.83593V7.79205C9.92375 6.47065 9.93001 5.72784 9.93939 5.69187C9.96442 5.60431 10.0192 5.53549 10.0942 5.49484C10.1584 5.46199 10.1818 5.45887 10.4274 5.45887C10.6589 5.45887 10.6995 5.46199 10.7511 5.49014Z" fill="#27272A"/>
</g>
<defs>
<clipPath id="clip0_2706_411">
<rect width="16" height="16" fill="white" transform="translate(0 0.647461)"/>
</clipPath>
</defs>
</svg>
