<svg width="18" height="17" viewBox="0 0 18 17" fill="none" xmlns="http://www.w3.org/2000/svg">
<g clip-path="url(#clip0_2706_395)">
<mask id="mask0_2706_395" style="mask-type:luminance" maskUnits="userSpaceOnUse" x="0" y="0" width="18" height="17">
<path d="M17.8918 0.647461H0.191406V16.6475H17.8918V0.647461Z" fill="white"/>
</mask>
<g mask="url(#mask0_2706_395)">
<path d="M9.04121 10.3404C9.97224 10.3404 10.727 9.58233 10.727 8.64723C10.727 7.71215 9.97224 6.9541 9.04121 6.9541C8.1102 6.9541 7.35547 7.71215 7.35547 8.64723C7.35547 9.58233 8.1102 10.3404 9.04121 10.3404Z" fill="#087EA4"/>
<path d="M9.04203 12.4569C13.6971 12.4569 17.4708 10.7514 17.4708 8.64742C17.4708 6.54349 13.6971 4.83789 9.04203 4.83789C4.38695 4.83789 0.613281 6.54349 0.613281 8.64742C0.613281 10.7514 4.38695 12.4569 9.04203 12.4569Z" stroke="#087EA4"/>
<path d="M5.75797 10.5517C8.08549 14.6008 11.443 17.0304 13.2571 15.9784C15.0713 14.9264 14.6551 10.7913 12.3275 6.74222C10 2.69318 6.6425 0.26358 4.82838 1.31555C3.01423 2.36752 3.43044 6.50269 5.75797 10.5517Z" stroke="#087EA4"/>
<path d="M5.75798 6.74221C3.43043 10.7913 3.01425 14.9264 4.82837 15.9784C6.64251 17.0304 10 14.6008 12.3275 10.5517C14.6551 6.50271 15.0713 2.36752 13.2571 1.31555C11.443 0.26358 8.08551 2.69318 5.75798 6.74221Z" stroke="#087EA4"/>
</g>
</g>
<defs>
<clipPath id="clip0_2706_395">
<rect width="18" height="16" fill="white" transform="translate(0 0.647461)"/>
</clipPath>
</defs>
</svg>
