<svg width="16" height="17" viewBox="0 0 16 17" fill="none" xmlns="http://www.w3.org/2000/svg">
<path fill-rule="evenodd" clip-rule="evenodd" d="M2.81449 14.0486L2.38717 2.49157C2.37371 2.1099 2.66254 1.7869 3.03768 1.76357L10.6218 1.2819L11.2011 1.4809L11.9544 1.19724L12.7145 1.1489C13.0962 1.12424 13.4254 1.41857 13.45 1.80624C13.451 1.82124 13.4513 1.83657 13.4513 1.8519V14.4442C13.451 14.8332 13.1402 15.1482 12.7571 15.1479C12.747 15.1479 12.7368 15.1476 12.7269 15.1472L3.47615 14.7252C3.11578 14.7089 2.82828 14.4149 2.81449 14.0486Z" fill="#FF4081"/>
<path fill-rule="evenodd" clip-rule="evenodd" d="M11.9554 1.19727L10.6239 1.28127L10.5593 2.86826C10.5569 2.92626 10.6012 2.97494 10.6584 2.97759C10.6823 2.97859 10.7056 2.97126 10.7247 2.95659L11.3312 2.48893L11.8438 2.89926C11.8885 2.93526 11.9538 2.92759 11.9889 2.88226C12.004 2.86259 12.0119 2.83826 12.0112 2.81326L11.9561 1.1976L11.9554 1.19727ZM10.919 6.51026C10.6758 6.70259 8.85882 6.83359 8.85882 6.55994C8.89754 5.51494 8.43706 5.46926 8.18074 5.46926C7.93821 5.46926 7.52861 5.54359 7.52861 6.10359C7.52861 6.67394 8.12691 6.99594 8.82928 7.37394C9.8267 7.91094 11.0348 8.56126 11.0348 10.1963C11.0348 11.7643 9.78042 12.6296 8.18141 12.6296C6.53085 12.6296 5.08807 11.9513 5.25085 9.59994C5.31485 9.32426 7.41373 9.38994 7.41373 9.59994C7.38746 10.5703 7.60541 10.8556 8.15546 10.8556C8.57786 10.8556 8.76954 10.6189 8.76954 10.2213C8.76954 9.61859 8.1466 9.26294 7.42916 8.85426C6.45799 8.30059 5.31519 7.64894 5.31519 6.15294C5.31519 4.66059 6.32573 3.66526 8.12986 3.66526C9.93402 3.66526 10.919 4.64559 10.919 6.51026Z" fill="white"/>
</svg>
