<svg width="16" height="17" viewBox="0 0 16 17" fill="none" xmlns="http://www.w3.org/2000/svg">
<path d="M13.2446 9.29931C12.7398 9.30199 12.3027 9.42499 11.9364 9.60866C11.8025 9.33699 11.6666 9.09799 11.6439 8.92031C11.6174 8.71299 11.5865 8.58899 11.6187 8.34199C11.6508 8.09499 11.7916 7.74499 11.7897 7.71866C11.7877 7.69231 11.7582 7.56666 11.467 7.56431C11.1759 7.56231 10.9268 7.62131 10.8976 7.69931C10.8684 7.77731 10.8123 7.95299 10.7775 8.13631C10.7266 8.40431 10.1962 9.36066 9.89527 9.86066C9.79681 9.66531 9.71312 9.49331 9.69571 9.35731C9.66913 9.14999 9.63828 9.02599 9.67043 8.77899C9.70261 8.53199 9.8434 8.18199 9.84144 8.15566C9.83947 8.12931 9.80993 8.00366 9.5188 8.00131C9.2277 7.99931 8.97859 8.05831 8.94937 8.13631C8.92016 8.21431 8.88865 8.39666 8.82925 8.57331C8.76951 8.74966 8.06487 10.3447 7.88008 10.7583C7.78588 10.969 7.70415 11.1383 7.64641 11.2537L7.64606 11.253C7.64606 11.253 7.64247 11.2607 7.63656 11.2737C7.58699 11.372 7.55779 11.4263 7.55779 11.4263C7.55779 11.4263 7.55811 11.427 7.55878 11.4283C7.51939 11.5007 7.47737 11.5677 7.4567 11.5677C7.44225 11.5677 7.41305 11.3753 7.46292 11.1113C7.56796 10.558 7.8197 9.69531 7.81739 9.66531C7.81608 9.64999 7.86433 9.49966 7.65296 9.42099C7.44752 9.34466 7.37431 9.47199 7.3556 9.47231C7.33756 9.47266 7.32409 9.51731 7.32409 9.51731C7.32409 9.51731 7.55287 8.54699 6.88759 8.54699C6.47142 8.54699 5.8951 9.00931 5.61121 9.42831C5.43201 9.52766 5.04833 9.74031 4.64168 9.96731C4.48545 10.0547 4.32594 10.1437 4.17465 10.2283C4.16446 10.2167 4.15398 10.2053 4.14347 10.1937C3.3364 9.31931 1.84504 8.70099 1.90806 7.52531C1.93103 7.09799 2.07741 5.97266 4.77428 4.60799C6.98342 3.48999 8.75213 3.79766 9.05768 4.47931C9.49419 5.45366 8.11245 7.26399 5.8183 7.52531C4.94428 7.62499 4.48382 7.28066 4.36926 7.15266C4.24882 7.01766 4.23078 7.01166 4.1858 7.03699C4.11262 7.07831 4.1589 7.19731 4.1858 7.26831C4.25441 7.44931 4.53534 7.77031 5.01453 7.93031C5.43627 8.07099 6.46256 8.14799 7.70352 7.66031C9.09379 7.11431 10.1792 5.59499 9.86014 4.32531C9.53588 3.03399 7.42748 2.60932 5.43201 3.32931C4.24291 3.75799 2.95732 4.43066 2.03278 5.30866C0.933617 6.35266 0.758356 7.26166 0.830563 7.64131C1.08722 8.99066 2.91828 9.86931 3.65148 10.5203C3.61539 10.5407 3.58125 10.5597 3.55041 10.577C3.1828 10.7617 1.78695 11.5037 1.43774 12.2873C1.0416 13.1763 1.50076 13.8143 1.80467 13.9003C2.7463 14.1663 3.71252 13.6877 4.23208 12.901C4.75129 12.1147 4.68796 11.0903 4.44968 10.623C4.44673 10.6173 4.44345 10.6117 4.4405 10.6057C4.53534 10.5487 4.63216 10.4907 4.72801 10.4333C4.91508 10.3217 5.09886 10.2177 5.25805 10.1297C5.16877 10.3777 5.10347 10.6753 5.06967 11.105C5.02962 11.6097 5.23344 12.262 5.49995 12.5187C5.61744 12.6317 5.75855 12.6343 5.84784 12.6343C6.15799 12.6343 6.29945 12.3723 6.45534 12.0623C6.64636 11.6823 6.81603 11.2397 6.81603 11.2397C6.81603 11.2397 6.60335 12.435 7.18297 12.435C7.39435 12.435 7.60668 12.1567 7.70155 12.015C7.70187 12.0167 7.70187 12.0173 7.70187 12.0173C7.70187 12.0173 7.70745 12.008 7.71828 11.9897C7.74027 11.9557 7.75275 11.934 7.75275 11.934C7.75275 11.934 7.75307 11.9317 7.75373 11.9277C7.83873 11.778 8.02711 11.4367 8.30937 10.8737C8.67435 10.1463 9.0242 9.23499 9.0242 9.23499C9.0242 9.23499 9.0567 9.45766 9.16336 9.82631C9.22605 10.043 9.35929 10.2827 9.46465 10.5127C9.37997 10.632 9.32813 10.7003 9.32813 10.7003C9.32813 10.7003 9.32845 10.7017 9.32944 10.704C9.26182 10.7953 9.186 10.8937 9.10659 10.9897C8.81842 11.338 8.47545 11.736 8.4295 11.8507C8.37534 11.986 8.38814 12.0853 8.49283 12.1657C8.56931 12.224 8.70519 12.2333 8.84729 12.2237C9.10625 12.206 9.28808 12.1407 9.378 12.101C9.51816 12.0507 9.68126 11.9717 9.83422 11.8573C10.1168 11.6463 10.2871 11.3447 10.2707 10.9447C10.2615 10.7243 10.1926 10.506 10.105 10.3C10.1306 10.2627 10.1562 10.2247 10.1821 10.1867C10.6275 9.52531 10.9731 8.79866 10.9731 8.79866C10.9731 8.79866 11.0056 9.02131 11.1123 9.38999C11.1661 9.57631 11.2727 9.77999 11.3686 9.97931C10.9498 10.325 10.6902 10.7267 10.5999 10.99C10.4332 11.4773 10.5638 11.698 10.8086 11.7483C10.9196 11.771 11.0765 11.7193 11.1943 11.6687C11.341 11.6193 11.5173 11.537 11.682 11.414C11.9646 11.203 12.2363 10.9077 12.2199 10.508C12.2124 10.326 12.1638 10.1453 12.0979 9.97199C12.453 9.82166 12.9125 9.73831 13.498 9.80766C14.754 9.95666 15.0002 10.753 14.9532 11.0863C14.906 11.4197 14.6427 11.603 14.5545 11.6583C14.4665 11.7137 14.4396 11.733 14.4468 11.774C14.4576 11.8337 14.4983 11.8317 14.5735 11.8187C14.6769 11.801 15.2329 11.5477 15.2568 10.9323C15.2867 10.1503 14.5499 9.29231 13.2446 9.29931ZM3.56353 12.614C3.14736 13.075 2.56643 13.249 2.317 13.1023C2.04787 12.944 2.15454 12.2653 2.66489 11.776C2.97603 11.478 3.37776 11.2033 3.64427 11.0343C3.70499 10.9973 3.79393 10.943 3.90224 10.877C3.92028 10.8667 3.93047 10.861 3.93047 10.861L3.93012 10.8603C3.95115 10.8477 3.97246 10.8347 3.99447 10.821C4.18056 11.5173 4.00038 12.1303 3.56353 12.614ZM6.59449 10.5217C6.44976 10.8803 6.14649 11.7983 5.96173 11.749C5.80321 11.7067 5.70672 11.009 5.93022 10.3223C6.04247 9.97666 6.28272 9.56366 6.42384 9.40331C6.65096 9.14531 6.90105 9.06099 6.96176 9.16566C7.0389 9.29899 6.68542 10.2967 6.59449 10.5217ZM9.09837 11.735C9.037 11.7677 8.98056 11.788 8.95462 11.7723C8.93527 11.7607 8.9799 11.7177 8.9799 11.7177C8.9799 11.7177 9.293 11.3753 9.4164 11.2197C9.48828 11.129 9.57133 11.0213 9.66192 10.9013C9.66256 10.9133 9.6629 10.9253 9.6629 10.937C9.66224 11.347 9.27233 11.6237 9.09837 11.735ZM11.0272 11.2883C10.9813 11.2553 10.9892 11.1483 11.1398 10.8147C11.1989 10.6837 11.3341 10.4633 11.5685 10.2527C11.5957 10.3393 11.6121 10.4223 11.6118 10.4997C11.6088 11.0157 11.2465 11.2083 11.0272 11.2883Z" fill="#F06292"/>
</svg>
