<svg width="16" height="17" viewBox="0 0 16 17" fill="none" xmlns="http://www.w3.org/2000/svg">
<g clip-path="url(#clip0_2706_448)">
<mask id="mask0_2706_448" style="mask-type:luminance" maskUnits="userSpaceOnUse" x="0" y="0" width="16" height="17">
<path d="M15.8398 0.147461H0.0859375V16.1475H15.8398V0.147461Z" fill="white"/>
</mask>
<g mask="url(#mask0_2706_448)">
<path d="M0.366231 10.2671C0.180499 9.58014 0.0859375 8.86659 0.0859375 8.14794C0.0859375 4.86724 2.11466 1.8675 5.13453 0.68457L5.53047 1.72531C2.93104 2.74379 1.18515 5.32464 1.18515 8.14794C1.18515 8.76724 1.26619 9.38054 1.42575 9.97157L0.366231 10.2671Z" fill="#58D09E"/>
<path d="M5.08203 0.709684C5.7353 0.450274 6.42414 0.280176 7.12787 0.205055C10.3404 -0.137871 13.4899 1.5977 14.9639 4.52431L13.9862 5.03301C12.7171 2.51389 10.0074 1.02021 7.24277 1.31532C6.63632 1.38006 6.04425 1.52602 5.48218 1.74897L5.08203 0.709684Z" fill="#58D09E"/>
<path d="M11.5664 13.9644C13.7115 12.5757 14.9063 10.1112 14.6843 7.53413C14.6056 6.62101 14.3561 5.74891 13.9439 4.94378L14.9179 4.42773C15.3973 5.36376 15.6877 6.37596 15.7791 7.43686C16.037 10.4307 14.6495 13.2928 12.1572 14.906L11.5664 13.9644Z" fill="#27272A"/>
<path d="M5.62588 6.4973C6.26324 6.4973 6.78248 6.8425 7.04926 7.44467L7.07038 7.4918L8.14085 7.1226L8.11806 7.06695C7.70354 6.0416 6.74871 5.4043 5.62588 5.4043C4.83648 5.4043 4.19486 5.6613 3.66469 6.18895C3.13785 6.71317 2.87109 7.37275 2.87109 8.14965C2.87109 8.9197 3.13785 9.57585 3.66469 10.1001C4.19486 10.6277 4.83648 10.8847 5.62588 10.8847C6.74871 10.8847 7.70354 10.2474 8.11806 9.22295L8.14085 9.16727L7.06866 8.7972L7.04842 8.84605C6.80948 9.43795 6.27762 9.7917 5.62588 9.7917C5.18179 9.7917 4.80695 9.6341 4.50974 9.324C4.20921 9.00965 4.05726 8.61477 4.05726 8.1505C4.05726 7.6828 4.20584 7.29565 4.50974 6.9667C4.80608 6.65495 5.18179 6.4973 5.62588 6.4973Z" fill="#27272A"/>
<path d="M12.3292 5.50488L10.8036 9.42543L9.26796 5.50488H8.01172L10.1654 10.8559L8.63308 14.63L9.73145 14.8519L13.5162 5.50488H12.3292Z" fill="#27272A"/>
<path d="M8.82953 14.1434L8.56191 14.8013C8.50872 14.9315 8.38714 15.0197 8.25038 15.0257C8.16007 15.0291 8.06889 15.0317 7.97685 15.0317C4.82697 15.03 2.04013 12.7746 1.34954 9.66699L0.277344 9.91282C0.664851 11.6559 1.63743 13.238 3.01607 14.3687C4.41077 15.5122 6.16762 16.1435 7.96504 16.147C7.96757 16.147 7.98106 16.147 7.98106 16.147C8.08661 16.147 8.19128 16.1444 8.29597 16.1401C8.85993 16.1161 9.36396 15.7572 9.57922 15.2253L9.92873 14.3653L8.82953 14.1434Z" fill="#27272A"/>
</g>
</g>
<defs>
<clipPath id="clip0_2706_448">
<rect width="16" height="16" fill="white" transform="translate(0 0.147461)"/>
</clipPath>
</defs>
</svg>
