<svg width="16" height="17" viewBox="0 0 16 17" fill="none" xmlns="http://www.w3.org/2000/svg">
<g clip-path="url(#clip0_2706_367)">
<path d="M0 16.6475V0.647461H16V16.6475H0Z" fill="#FFD600"/>
<path d="M10.4618 12.6241C10.7693 13.1237 11.1036 13.6023 11.8116 13.6023C12.4062 13.6023 12.7182 13.3068 12.7182 12.8979C12.7182 12.4086 12.3956 12.2348 11.7413 11.9499L11.3827 11.797C10.3476 11.3579 9.65911 10.8077 9.65911 9.64544C9.65911 8.57434 10.4791 7.75921 11.7604 7.75921C12.6729 7.75921 13.3284 8.07521 13.8013 8.90279L12.684 9.61699C12.4382 9.17789 12.1724 9.00499 11.7604 9.00499C11.34 9.00499 11.0738 9.27034 11.0738 9.61699C11.0738 10.0454 11.3404 10.2188 11.956 10.4841L12.3147 10.637C13.5347 11.1566 14.2227 11.6872 14.2227 12.8801C14.2227 14.1654 13.2076 14.8699 11.8449 14.8699C10.512 14.8699 9.75511 14.201 9.33379 13.373L10.4618 12.6241ZM5.31244 12.6606C5.53734 13.0632 5.87911 13.373 6.37066 13.373C6.84089 13.373 7.11156 13.1872 7.11156 12.465V7.75879H8.59289V12.6926C8.59289 14.189 7.72489 14.8699 6.45734 14.8699C5.31201 14.8699 4.48534 14.0939 4.14844 13.373L5.31244 12.6606Z" fill="#000001"/>
</g>
<defs>
<clipPath id="clip0_2706_367">
<rect width="16" height="16" fill="white" transform="translate(0 0.647461)"/>
</clipPath>
</defs>
</svg>
