<svg width="12" height="17" viewBox="0 0 12 17" fill="none" xmlns="http://www.w3.org/2000/svg">
<g clip-path="url(#clip0_2706_437)">
<mask id="mask0_2706_437" style="mask-type:luminance" maskUnits="userSpaceOnUse" x="0" y="0" width="12" height="17">
<path d="M11.8239 0.147461H0.1875V16.1475H11.8239V0.147461Z" fill="white"/>
</mask>
<g mask="url(#mask0_2706_437)">
<path d="M6.00391 8.14712C6.00391 7.43989 6.3104 6.76162 6.85596 6.26152C7.40152 5.76142 8.14146 5.48047 8.91298 5.48047C9.68453 5.48047 10.4245 5.76142 10.97 6.26152C11.5156 6.76162 11.8221 7.43989 11.8221 8.14712C11.8221 8.85437 11.5156 9.53264 10.97 10.0327C10.4245 10.5328 9.68453 10.8138 8.91298 10.8138C8.14146 10.8138 7.40152 10.5328 6.85596 10.0327C6.3104 9.53264 6.00391 8.85437 6.00391 8.14712Z" fill="#1ABCFE"/>
<path d="M0.1875 13.4811C0.1875 12.7739 0.493992 12.0956 1.03955 11.5955C1.58511 11.0954 2.32505 10.8145 3.0966 10.8145H6.00567V13.4811C6.00567 14.1884 5.69918 14.8667 5.15362 15.3668C4.60808 15.8669 3.86812 16.1478 3.0966 16.1478C2.32505 16.1478 1.58511 15.8669 1.03955 15.3668C0.493992 14.8667 0.1875 14.1884 0.1875 13.4811Z" fill="#0ACF83"/>
<path d="M6.00391 0.147461V5.48079H8.91298C9.68453 5.48079 10.4245 5.19984 10.97 4.69974C11.5156 4.19964 11.8221 3.52136 11.8221 2.81414C11.8221 2.10688 11.5156 1.42861 10.97 0.928508C10.4245 0.428413 9.68453 0.147461 8.91298 0.147461H6.00391Z" fill="#FF7262"/>
<path d="M0.1875 2.81414C0.1875 3.52136 0.493992 4.19964 1.03955 4.69974C1.58511 5.19984 2.32505 5.48079 3.0966 5.48079H6.00567V0.147461H3.0966C2.32505 0.147461 1.58511 0.428413 1.03955 0.928508C0.493992 1.42861 0.1875 2.10688 0.1875 2.81414Z" fill="#F24E1E"/>
<path d="M0.1875 8.14712C0.1875 8.85437 0.493992 9.53264 1.03955 10.0327C1.58511 10.5328 2.32505 10.8138 3.0966 10.8138H6.00567V5.48047H3.0966C2.32505 5.48047 1.58511 5.76142 1.03955 6.26152C0.493992 6.76162 0.1875 7.43989 0.1875 8.14712Z" fill="#A259FF"/>
</g>
</g>
<defs>
<clipPath id="clip0_2706_437">
<rect width="12" height="16" fill="white" transform="translate(0 0.147461)"/>
</clipPath>
</defs>
</svg>
