<svg width="16" height="17" viewBox="0 0 16 17" fill="none" xmlns="http://www.w3.org/2000/svg">
<g clip-path="url(#clip0_2706_371)">
<path d="M15.5144 8.02451C15.5144 7.06301 14.7859 6.25388 13.8079 6.02301L15.9983 0.161133H5.14327L7.33864 6.04151C6.39139 6.29101 5.69314 7.08601 5.69314 8.02938C5.69314 8.72263 6.07539 9.33738 6.65602 9.71638C6.42702 10.0123 6.16189 10.2851 5.86152 10.5439C5.29614 11.0249 4.66914 11.3945 3.99189 11.6396C3.38064 11.2651 3.11589 10.604 3.35514 10.0121C4.28727 9.75338 4.96514 8.96288 4.96514 8.03376C4.96514 6.89213 3.94114 5.96726 2.68764 5.96726C1.42939 5.96726 0.406016 6.89651 0.406016 8.03851C0.406016 8.60263 0.660391 9.12013 1.06814 9.48976C1.03239 9.55476 0.996891 9.61913 0.961141 9.68851C0.619891 10.3268 0.232641 11.0479 0.0846412 11.857C-0.210734 13.4746 0.273141 14.774 1.43964 15.5089C2.09689 15.9205 2.82052 16.1285 3.59989 16.1285C4.93914 16.1285 6.29952 15.5181 7.61352 14.9263C8.55102 14.5059 9.51877 14.0664 10.4714 13.854C10.823 13.7754 11.1896 13.729 11.5769 13.6783C12.361 13.5766 13.1711 13.4703 13.8996 13.0865C14.7503 12.6383 15.3309 11.8891 15.4993 11.0294C15.6261 10.3681 15.4993 9.70263 15.173 9.12013C15.3959 8.79829 15.5151 8.41598 15.5144 8.02451ZM14.5213 8.02451C14.5213 8.66701 13.9455 9.18951 13.2375 9.18951C12.5295 9.18951 11.9538 8.66701 11.9538 8.02451C11.9538 7.81638 12.0149 7.61776 12.1218 7.44676C12.1624 7.38176 12.2136 7.31738 12.2643 7.26176C12.3179 7.20455 12.3778 7.15345 12.4426 7.10938L12.448 7.10451C12.4885 7.07676 12.5344 7.04888 12.5803 7.02151C12.5803 7.02151 12.5853 7.02151 12.5853 7.01663C12.6056 7.00738 12.6261 6.99363 12.6468 6.98438C12.6516 6.98438 12.6565 6.97951 12.6618 6.97951C12.6824 6.97076 12.7078 6.96151 12.733 6.95213C12.7571 6.94372 12.7809 6.93446 12.8044 6.92438C12.8094 6.92438 12.8146 6.91938 12.8195 6.91938C12.84 6.91513 12.8605 6.90576 12.8806 6.90138C12.886 6.90138 12.8963 6.89651 12.9011 6.89651C12.9265 6.89213 12.947 6.88726 12.9724 6.88276H12.9778L13.054 6.86863C13.0593 6.86863 13.069 6.86863 13.0744 6.86426C13.0949 6.86426 13.115 6.85938 13.1355 6.85938H13.1609C13.1863 6.85938 13.2121 6.85501 13.2424 6.85501H13.3088C13.3288 6.85501 13.3445 6.85501 13.3645 6.85938H13.3748C13.4158 6.86438 13.4563 6.86863 13.4973 6.87801C14.0779 6.98876 14.5213 7.46051 14.5213 8.02451ZM6.56414 1.08551H14.5769L12.738 6.00888C12.6618 6.02301 12.5851 6.04588 12.509 6.06888L10.5735 2.48638L8.63252 6.04576C8.55589 6.02288 8.47439 6.00876 8.39327 5.99501L6.56414 1.08551ZM10.2063 7.62201C10.1096 7.18738 9.86502 6.79926 9.51877 6.51263L10.5735 4.58051L11.6379 6.55413C11.322 6.84076 11.0929 7.20601 11.0011 7.62201H10.2063ZM7.65452 6.89201C7.67989 6.88701 7.70039 6.88276 7.72577 6.87788H7.74089C7.76139 6.87351 7.78202 6.87351 7.80202 6.86851H7.82252C7.84302 6.86851 7.85814 6.86413 7.87864 6.86413H8.07739C8.09739 6.86413 8.11302 6.86851 8.12814 6.86851C8.13839 6.86851 8.14327 6.86851 8.15352 6.87351C8.17402 6.87788 8.18914 6.87788 8.20977 6.88276C8.21452 6.88276 8.21989 6.88276 8.23014 6.88713C8.25564 6.89201 8.28102 6.89638 8.30139 6.90126H8.30639C8.32689 6.90563 8.34739 6.91001 8.36739 6.91938C8.37277 6.91938 8.37764 6.92426 8.38789 6.92426C8.40302 6.92863 8.42352 6.93351 8.43864 6.94276C8.44402 6.94276 8.44889 6.94713 8.45427 6.94713C8.47427 6.95651 8.49489 6.96138 8.51539 6.97063H8.52027C8.54564 6.97938 8.56614 6.98863 8.58664 7.00288H8.59164C8.61202 7.01213 8.63252 7.02576 8.65302 7.03501C8.65802 7.03501 8.65802 7.04001 8.66277 7.04001C8.68327 7.04876 8.69852 7.06288 8.71902 7.07213L8.72439 7.07651C8.78539 7.11813 8.84152 7.16451 8.89714 7.21088L8.90252 7.21526C8.95339 7.26601 9.00414 7.32163 9.04514 7.38176C9.17752 7.56676 9.25414 7.78413 9.25414 8.01988C9.25414 8.66251 8.67839 9.18451 7.97039 9.18451C7.26239 9.18451 6.68664 8.66251 6.68664 8.01988C6.68139 7.47888 7.09402 7.02138 7.65452 6.89201ZM2.64177 6.85926C3.34989 6.85926 3.92552 7.38176 3.92552 8.02426C3.92552 8.66688 3.34989 9.18926 2.64177 9.18926C1.93377 9.18926 1.35802 8.66688 1.35802 8.02426C1.35802 7.38176 1.93377 6.85926 2.64177 6.85926ZM14.4905 10.8676C14.3786 11.4589 13.9758 11.977 13.385 12.2865C12.8298 12.578 12.1471 12.6703 11.4289 12.7626C11.0369 12.8134 10.6243 12.869 10.2268 12.9569C9.16727 13.1928 8.14864 13.6551 7.16039 14.0985C5.89714 14.6674 4.70477 15.2035 3.59989 15.2035C3.02414 15.2035 2.50952 15.0556 2.02077 14.746C0.900141 14.0434 0.955766 12.726 1.08864 12.0048C1.21064 11.3295 1.55202 10.6963 1.87814 10.0908C1.89814 10.0536 1.91377 10.0214 1.93377 9.98426C2.04614 10.0214 2.16327 10.0493 2.28539 10.0678C2.09202 11.0478 2.64177 12.06 3.71164 12.5595L3.90539 12.6518L4.11402 12.5824C5.00564 12.2958 5.83077 11.829 6.55927 11.2049C6.97189 10.8534 7.32352 10.4745 7.61889 10.0629C7.73602 10.0815 7.85327 10.0864 7.97039 10.0864C9.03002 10.0864 9.92114 9.42513 10.176 8.53751H11.0315C11.2864 9.42963 12.1779 10.0863 13.2375 10.0863C13.6604 10.0863 14.0525 9.98001 14.3884 9.79976C14.5213 10.1464 14.5618 10.5068 14.4905 10.8676Z" fill="#99425B"/>
</g>
<defs>
<clipPath id="clip0_2706_371">
<rect width="16" height="16" fill="white" transform="translate(0 0.147461)"/>
</clipPath>
</defs>
</svg>
