<svg width="16" height="17" viewBox="0 0 16 17" fill="none" xmlns="http://www.w3.org/2000/svg">
<g clip-path="url(#clip0_2706_526)">
<mask id="mask0_2706_526" style="mask-type:luminance" maskUnits="userSpaceOnUse" x="0" y="0" width="16" height="17">
<path d="M15.9927 0.147461H0.183594V16.1475H15.9927V0.147461Z" fill="white"/>
</mask>
<g mask="url(#mask0_2706_526)">
<path d="M8.1142 16.1472C7.87336 16.1472 7.6486 16.0889 7.43988 15.9869L5.30449 14.8351C4.98337 14.6748 5.14393 14.6165 5.24027 14.5873C5.67376 14.4561 5.75404 14.4269 6.20361 14.1937C6.25175 14.1645 6.31597 14.1791 6.36414 14.2083L8.00181 15.0976C8.06604 15.1267 8.14632 15.1267 8.19449 15.0976L14.6006 11.7299C14.6649 11.7007 14.697 11.6424 14.697 11.5695V4.84872C14.697 4.77584 14.6649 4.71752 14.6006 4.68837L8.19449 1.33527C8.13026 1.30612 8.04998 1.30612 8.00181 1.33527L1.59565 4.68837C1.53143 4.71752 1.49932 4.79042 1.49932 4.84872V11.5695C1.49932 11.6278 1.53143 11.7007 1.59565 11.7299L3.3457 12.6483C4.29298 13.0857 4.88703 12.5754 4.88703 12.0652V5.43187C4.88703 5.34442 4.96731 5.25694 5.07971 5.25694H5.89854C5.99488 5.25694 6.09119 5.32984 6.09119 5.43187V12.0652C6.09119 13.2169 5.4008 13.8875 4.19665 13.8875C3.82738 13.8875 3.53837 13.8875 2.71953 13.5231L1.03371 12.6483C0.616265 12.4296 0.359375 12.0214 0.359375 11.5841V4.86332C0.359375 4.42597 0.616265 4.01777 1.03371 3.79907L7.43988 0.431397C7.84128 0.227295 8.38716 0.227295 8.78854 0.431397L15.1947 3.79907C15.6121 4.01777 15.869 4.42597 15.869 4.86332V11.5841C15.869 12.0214 15.6121 12.4296 15.1947 12.6483L8.78854 16.016C8.59586 16.0889 8.35505 16.1472 8.1142 16.1472Z" fill="#5FA04E"/>
<path d="M10.1065 11.5257C7.29674 11.5257 6.71875 10.3594 6.71875 9.36803C6.71875 9.28056 6.79903 9.19311 6.9114 9.19311H7.74629C7.84262 9.19311 7.9229 9.25141 7.9229 9.33888C8.05135 10.1115 8.42065 10.4906 10.1225 10.4906C11.4712 10.4906 12.0492 10.2136 12.0492 9.55756C12.0492 9.17851 11.8886 8.90151 9.78533 8.71198C8.0353 8.55161 6.94354 8.20173 6.94354 6.93338C6.94354 5.75251 8.0353 5.05273 9.86564 5.05273C11.9207 5.05273 12.9322 5.69421 13.0607 7.09376C13.0607 7.13751 13.0446 7.18123 13.0125 7.22498C12.9804 7.25411 12.9322 7.28328 12.8841 7.28328H12.0331C11.9528 7.28328 11.8726 7.22498 11.8565 7.15206C11.6638 6.35023 11.1661 6.08781 9.84959 6.08781C8.37245 6.08781 8.19586 6.55436 8.19586 6.90423C8.19586 7.32701 8.40459 7.45823 10.3955 7.69148C12.3703 7.92473 13.3015 8.26006 13.3015 9.51383C13.3015 10.7967 12.1294 11.5257 10.1065 11.5257Z" fill="#5FA04E"/>
</g>
</g>
<defs>
<clipPath id="clip0_2706_526">
<rect width="16" height="16" fill="white" transform="translate(0 0.147461)"/>
</clipPath>
</defs>
</svg>
