<svg width="16" height="17" viewBox="0 0 16 17" fill="none" xmlns="http://www.w3.org/2000/svg">
<g clip-path="url(#clip0_2706_359)">
<mask id="mask0_2706_359" style="mask-type:luminance" maskUnits="userSpaceOnUse" x="0" y="0" width="16" height="17">
<path d="M15.8007 0.147461H0.046875V16.1475H15.8007V0.147461Z" fill="white"/>
</mask>
<g mask="url(#mask0_2706_359)">
<path d="M15.8007 12.5448C15.2277 12.6928 14.8732 12.5513 14.5552 12.0663L12.2935 8.88828L11.9666 8.44828L9.32539 12.0768C9.0236 12.5133 8.70705 12.7033 8.14385 12.5488L11.526 7.93778L8.3772 3.77278C8.91874 3.66578 9.2929 3.72028 9.6252 4.21278L11.971 7.43028L14.3341 4.23028C14.6369 3.79378 14.9623 3.62778 15.5058 3.78878L14.2849 5.43278L12.6307 7.62028C12.4338 7.87028 12.4609 8.04128 12.6421 8.28278L15.8007 12.5448ZM0.0508135 7.86078L0.327489 6.47878C1.08072 3.74378 4.16748 2.60728 6.29622 4.29728C7.54028 5.29128 7.84945 6.69728 7.78791 8.27228H0.775489C0.670136 11.1073 2.67923 12.8183 5.24071 11.9453C6.13917 11.6388 6.6684 10.9243 6.93326 10.0303C7.06766 9.58228 7.29019 9.51228 7.70471 9.64028C7.49302 10.7583 7.01548 11.6923 6.00625 12.2768C4.49831 13.1518 2.34595 12.8688 1.21364 11.6528C0.539182 10.9473 0.260536 10.0533 0.13549 9.09728C0.115798 8.93928 0.0764135 8.78878 0.046875 8.63728C0.0495007 8.37863 0.0508135 8.11996 0.0508135 7.86128V7.86078ZM0.788289 7.67078H7.12526C7.08391 5.62078 5.82705 4.16478 4.10939 4.15228C2.22386 4.13728 0.870012 5.55878 0.788289 7.67078Z" fill="#27272A"/>
</g>
</g>
<defs>
<clipPath id="clip0_2706_359">
<rect width="16" height="16" fill="white" transform="translate(0 0.147461)"/>
</clipPath>
</defs>
</svg>
